<mxfile host="app.diagrams.net" modified="2023-08-30T03:12:56.812Z" agent="Mozilla/5.0 (Windows NT 10.0; Win64; x64) AppleWebKit/537.36 (KHTML, like Gecko) Chrome/116.0.0.0 Safari/537.36 Edg/116.0.1938.62" version="21.1.2" etag="uV8r5Muf6nNOVbqCM6iz" type="github">
  <diagram name="Page-1" id="TACW8LY72tp6bV8MoGoq">
    <mxGraphModel>
      <root>
        <mxCell id="0" />
        <mxCell id="1" parent="0" />
      </root>
    </mxGraphModel>
  </diagram>
</mxfile>
